<svg width="183" height="41" viewBox="0 0 183 41" fill="none" xmlns="http://www.w3.org/2000/svg">
<path fill-rule="evenodd" clip-rule="evenodd" d="M18 16C17.04 16 16.25 16.79 16.25 17.75V18.5H14.75V17.75C14.75 15.96 16.21 14.5 18 14.5C19.79 14.5 21.25 15.96 21.25 17.75V18.5H19.75V17.75C19.75 16.79 18.96 16 18 16ZM13 26.5V19.5H23V26.5H13ZM18.38 25V22.92C18.74 22.78 19 22.42 19 22C19 21.45 18.55 21 18 21C17.45 21 17 21.45 17 22C17 22.42 17.26 22.78 17.62 22.92V25H18.38Z" fill="#5B616E"/>
<path d="M36.4347 25.168C34.3467 25.168 33.1227 24.1 33.0747 22.612H34.2267C34.2747 23.656 35.1027 24.244 36.4467 24.244C37.7427 24.244 38.5467 23.62 38.5467 22.684C38.5467 21.856 37.9827 21.508 36.9267 21.34L35.7147 21.148C34.2987 20.932 33.2907 20.272 33.2907 18.82C33.2907 17.464 34.4187 16.372 36.4347 16.372C38.4987 16.372 39.5187 17.488 39.5787 18.736H38.4267C38.3667 17.896 37.7187 17.296 36.4227 17.296C35.1147 17.296 34.4427 17.944 34.4427 18.748C34.4427 19.588 35.0547 19.936 36.0267 20.092L37.2147 20.284C38.6787 20.512 39.7107 21.16 39.7107 22.624C39.7107 24.16 38.4027 25.168 36.4347 25.168ZM44.2008 25.168C42.2328 25.168 41.2008 23.692 41.2008 21.808C41.2008 19.912 42.2928 18.448 44.1648 18.448C46.0488 18.448 47.0568 19.852 47.0568 21.664V22.048H42.3048V22.096C42.3048 23.452 43.0728 24.304 44.2248 24.304C45.2088 24.304 45.7368 23.788 45.8208 23.296H46.9368C46.7208 24.4 45.7248 25.168 44.2008 25.168ZM44.1648 19.324C43.1568 19.324 42.4008 20.044 42.3168 21.28H45.9408C45.9048 20.02 45.2208 19.324 44.1648 19.324ZM49.6553 21.58V22.048C49.6553 23.392 50.4473 24.232 51.5273 24.232C52.4753 24.232 52.9793 23.704 53.1233 23.044H54.2033C53.9873 24.328 53.0513 25.168 51.5393 25.168C49.5833 25.168 48.5513 23.716 48.5513 21.808C48.5513 19.888 49.6193 18.448 51.5393 18.448C53.0513 18.448 54.0113 19.288 54.2033 20.548H53.1113C52.9793 19.924 52.4873 19.396 51.5273 19.396C50.4473 19.396 49.6553 20.224 49.6553 21.58ZM60.2877 22.372V18.616H61.3917V25H60.3597V23.824H60.2997C59.9997 24.712 59.2557 25.168 58.3077 25.168C57.0117 25.168 55.9917 24.292 55.9917 22.672V18.616H57.0957V22.564C57.0957 23.668 57.8037 24.208 58.6317 24.208C59.4957 24.208 60.2877 23.62 60.2877 22.372ZM63.6242 25V18.616H64.6682V19.744H64.7282C64.8962 19.156 65.4002 18.58 66.4682 18.58H67.2722V19.612H66.2642C65.0642 19.612 64.7282 20.332 64.7282 21.256V25H63.6242ZM71.2238 25.168C69.2558 25.168 68.2238 23.692 68.2238 21.808C68.2238 19.912 69.3158 18.448 71.1878 18.448C73.0718 18.448 74.0798 19.852 74.0798 21.664V22.048H69.3278V22.096C69.3278 23.452 70.0958 24.304 71.2478 24.304C72.2318 24.304 72.7598 23.788 72.8438 23.296H73.9598C73.7438 24.4 72.7478 25.168 71.2238 25.168ZM71.1878 19.324C70.1798 19.324 69.4238 20.044 69.3398 21.28H72.9638C72.9278 20.02 72.2438 19.324 71.1878 19.324ZM81.4543 25H80.4103V23.692H80.3503C80.0383 24.58 79.3423 25.168 78.2263 25.168C76.4503 25.168 75.4903 23.704 75.4903 21.808C75.4903 19.912 76.4743 18.448 78.2263 18.448C79.2823 18.448 79.9423 18.988 80.2903 19.84H80.3503V16H81.4543V25ZM76.5943 22.048C76.5943 23.428 77.3983 24.232 78.4663 24.232C79.5463 24.232 80.3503 23.392 80.3503 22.048V21.58C80.3503 20.224 79.5463 19.396 78.4663 19.396C77.3983 19.396 76.5943 20.2 76.5943 21.58V22.048ZM86.7449 25V16H87.8489V19.84H87.8969C88.2449 18.988 88.9049 18.448 89.9609 18.448C91.7249 18.448 92.7089 19.912 92.7089 21.808C92.7089 23.704 91.7489 25.168 89.9609 25.168C88.8449 25.168 88.1489 24.58 87.8369 23.692H87.7769V25H86.7449ZM91.5929 22.048V21.58C91.5929 20.2 90.8009 19.396 89.7209 19.396C88.6409 19.396 87.8489 20.224 87.8489 21.58V22.048C87.8489 23.392 88.6409 24.232 89.7209 24.232C90.8009 24.232 91.5929 23.428 91.5929 22.048ZM97.0023 25.696C96.5703 26.848 96.0543 27.304 94.8183 27.304H93.7503V26.368H94.7823C95.4423 26.368 95.6463 26.224 95.9223 25.54L96.1743 24.88L93.7143 18.616H94.9263L96.7383 23.668H96.7983L98.5623 18.616H99.6903L97.0023 25.696Z" fill="#5B616E"/>
<g clip-path="url(#clip0_2266_27597)">
<path d="M117.522 17.8526C115.088 17.8526 113.187 19.7035 113.187 22.1813C113.187 24.6592 115.04 26.4942 117.522 26.4942C120.004 26.4942 121.89 24.6275 121.89 22.1655C121.89 19.7194 120.037 17.8526 117.522 17.8526ZM117.539 24.7085C116.153 24.7085 115.137 23.6301 115.137 22.1819C115.137 20.7173 116.136 19.6395 117.522 19.6395C118.925 19.6395 119.94 20.7338 119.94 22.1819C119.94 23.6301 118.925 24.7085 117.539 24.7085ZM122.422 19.7358H123.631V26.334H125.565V18.0134H122.422V19.7358ZM108.319 19.6389C109.335 19.6389 110.141 20.2665 110.447 21.1998H112.494C112.123 19.2045 110.479 17.8526 108.336 17.8526C105.902 17.8526 104 19.7035 104 22.1819C104 24.6604 105.854 26.4948 108.336 26.4948C110.431 26.4948 112.107 25.1429 112.478 23.1312H110.447C110.157 24.0645 109.351 24.7085 108.335 24.7085C106.933 24.7085 105.95 23.6301 105.95 22.1819C105.95 20.7173 106.917 19.6389 108.319 19.6389ZM159.17 21.3771L157.751 21.1682C157.074 21.0719 156.591 20.8465 156.591 20.3152C156.591 19.7358 157.22 19.4464 158.074 19.4464C159.008 19.4464 159.605 19.8485 159.734 20.5083H161.604C161.394 18.8347 160.104 17.8532 158.122 17.8532C156.075 17.8532 154.721 18.8993 154.721 20.3798C154.721 21.7957 155.608 22.617 157.397 22.8741L158.815 23.083C159.508 23.1793 159.895 23.4535 159.895 23.9683C159.895 24.6281 159.218 24.9016 158.283 24.9016C157.139 24.9016 156.494 24.435 156.397 23.727H154.496C154.673 25.3525 155.946 26.4948 158.267 26.4948C160.379 26.4948 161.781 25.5292 161.781 23.8714C161.781 22.3909 160.765 21.6184 159.17 21.3771ZM124.598 14.5858C123.889 14.5858 123.357 15.1006 123.357 15.8086C123.357 16.5165 123.888 17.0313 124.598 17.0313C125.307 17.0313 125.839 16.5165 125.839 15.8086C125.839 15.1006 125.307 14.5858 124.598 14.5858ZM152.981 20.8623C152.981 19.0601 151.885 17.8532 149.564 17.8532C147.372 17.8532 146.147 18.9639 145.905 20.6698H147.823C147.92 20.01 148.436 19.4629 149.532 19.4629C150.515 19.4629 150.999 19.8973 150.999 20.4285C150.999 21.1206 150.112 21.2973 149.016 21.41C147.533 21.5709 145.696 22.0857 145.696 24.017C145.696 25.5139 146.808 26.479 148.581 26.479C149.967 26.479 150.837 25.8996 151.273 24.9821C151.337 25.8027 151.95 26.334 152.804 26.334H153.933V24.6123H152.981V20.8623H152.981ZM151.079 22.9545C151.079 24.0651 150.112 24.8858 148.935 24.8858C148.21 24.8858 147.597 24.58 147.597 23.9366C147.597 23.1159 148.58 22.8905 149.483 22.7942C150.353 22.7138 150.837 22.5207 151.079 22.1503V22.9545ZM140.812 17.8526C139.732 17.8526 138.829 18.3034 138.185 19.0595V14.5054H136.251V26.334H138.153V25.2398C138.797 26.0282 139.716 26.4948 140.812 26.4948C143.133 26.4948 144.89 24.6604 144.89 22.1819C144.89 19.7035 143.101 17.8526 140.812 17.8526ZM140.522 24.7085C139.136 24.7085 138.12 23.6301 138.12 22.1819C138.12 20.7338 139.152 19.6395 140.538 19.6395C141.94 19.6395 142.923 20.7179 142.923 22.1819C142.923 23.6301 141.908 24.7085 140.522 24.7085ZM131.625 17.8526C130.368 17.8526 129.546 18.3674 129.062 19.0918V18.0134H127.144V26.3334H129.078V21.8115C129.078 20.54 129.884 19.6389 131.076 19.6389C132.189 19.6389 132.881 20.4273 132.881 21.5703V26.334H134.815V21.4259C134.816 19.3331 133.737 17.8526 131.625 17.8526ZM171 21.9084C171 19.5268 169.259 17.8532 166.922 17.8532C164.44 17.8532 162.619 19.72 162.619 22.1819C162.619 24.7731 164.569 26.4948 166.954 26.4948C168.969 26.4948 170.549 25.3038 170.951 23.6143H168.936C168.646 24.3545 167.937 24.7731 166.986 24.7731C165.745 24.7731 164.81 24.0006 164.601 22.6486H170.999V21.9084H171ZM164.714 21.2644C165.02 20.1056 165.891 19.5427 166.89 19.5427C167.986 19.5427 168.824 20.1702 169.017 21.2644H164.714Z" fill="#0052FF"/>
</g>
<defs>
<clipPath id="clip0_2266_27597">
<rect width="67" height="11.9895" fill="white" transform="translate(104 14.5054)"/>
</clipPath>
</defs>
</svg>
